<svg width="23" height="20" viewBox="0 0 23 20" fill="none" xmlns="http://www.w3.org/2000/svg">
<path d="M7.38002 15.04C7.38002 11.35 4.39002 8.37 0.710022 8.37C4.40002 8.37 7.38002 5.38001 7.38002 1.70001C7.38002 5.39001 10.37 8.37 14.05 8.37C10.36 8.37 7.38002 11.36 7.38002 15.04Z" fill="#FDD896"/>
<path d="M18.06 8.79001C18.06 6.45001 16.16 4.54999 13.82 4.54999C16.16 4.54999 18.06 2.65 18.06 0.309998C18.06 2.65 19.96 4.54999 22.3 4.54999C19.96 4.54999 18.06 6.45001 18.06 8.79001Z" fill="#FDD896"/>
<path d="M7.99001 17.28C7.99001 16.181 7.09906 15.29 6.00001 15.29C4.90096 15.29 4.01001 16.181 4.01001 17.28C4.01001 18.3791 4.90096 19.27 6.00001 19.27C7.09906 19.27 7.99001 18.3791 7.99001 17.28Z" fill="#FDD896"/>
</svg>
