<svg width="26" height="28" viewBox="0 0 26 28" fill="none" xmlns="http://www.w3.org/2000/svg">
<path d="M15.53 0.320007C15.53 5.61001 19.8199 9.89999 25.1099 9.89999C19.8199 9.89999 15.53 14.19 15.53 19.48C15.53 14.19 11.24 9.89999 5.94995 9.89999C11.24 9.89999 15.53 5.61001 15.53 0.320007Z" fill="#FDD896"/>
<path d="M6.29993 13.72C6.29993 17.08 9.02995 19.81 12.39 19.81C9.02995 19.81 6.29993 22.54 6.29993 25.9C6.29993 22.54 3.56996 19.81 0.209961 19.81C3.56996 19.81 6.29993 17.08 6.29993 13.72Z" fill="#FDD896"/>
<path d="M18.09 27.53H18.1C19.9833 27.53 21.51 26.0033 21.51 24.12V24.11C21.51 22.2267 19.9833 20.7 18.1 20.7H18.09C16.2067 20.7 14.68 22.2267 14.68 24.11V24.12C14.68 26.0033 16.2067 27.53 18.09 27.53Z" fill="#FDD896"/>
</svg>
