<?xml version="1.0" encoding="UTF-8"?>
<svg id="Layer_2" data-name="Layer 2" xmlns="http://www.w3.org/2000/svg" viewBox="0 0 16.95 20.05">
  <defs>
    <style>
      .cls-1 {
        fill: #1c1a1b;
      }
    </style>
  </defs>
  <g id="Layer_1-2" data-name="Layer 1">
    <g>
      <path class="cls-1" d="M16.56,0l-4.69.63-5.96,9.55h0s0,0,0,0c.19.09.4.17.63.22.72.17,1.5.02,2.18-.24,1.47-.58,2.66-1.68,3.75-2.78,1.5-1.53,2.95-3.14,4.3-4.82l-.21-2.55ZM8.45,8.8c-.18.17-.83-.29-.69-.51.78-1.21,3.21-5.38,4.51-7.01.2-.25,2.85-.82,3.24.02.47,1-5.1,5.69-7.06,7.5Z"/>
      <path class="cls-1" d="M8.45,8.8c1.96-1.81,7.53-6.5,7.06-7.5-.39-.84-3.04-.27-3.24-.02-1.3,1.63-3.74,5.81-4.51,7.01-.14.21.51.68.69.51Z"/>
      <path class="cls-1" d="M16.91,4.21l-.14-1.66c-1.35,1.68-2.8,3.3-4.3,4.82-1.09,1.11-2.28,2.2-3.75,2.78-.68.27-1.46.41-2.18.24-.23-.05-.44-.13-.63-.22l-.49.78c.84.67,1.98,1.6,2.82,2.28l4.31-4.21,4.41-4.31h0l-.04-.51Z"/>
      <path class="cls-1" d="M8.23,13.24c-.84-.68-1.98-1.6-2.82-2.28-.6-.48-1.05-.84-1.12-.88l-.79.99c.61.53,1.22,1.06,1.88,1.53.67.49,1.57,1.18,2.47,1.11.26-.02.48-.11.66-.25-.09-.07-.18-.15-.27-.22Z"/>
      <path class="cls-1" d="M3.87,17.3s0,0,0,0c-.01-.05-.03-.1-.04-.14,0,0,0,0,0,0-.01-.04-.03-.09-.05-.13,0,0,0-.01,0-.02-.02-.04-.04-.09-.06-.13,0,0,0,0,0,0-.02-.04-.04-.07-.06-.11,0,0,0-.02-.01-.02-.02-.04-.05-.07-.08-.11,0,0,0,0,0,0-.03-.03-.05-.06-.08-.09,0,0-.02-.02-.02-.02-.03-.03-.06-.06-.1-.09-.02-.02-.05-.04-.07-.05,0,0-.01,0-.02-.01-.02-.01-.04-.02-.06-.04,0,0-.01,0-.02-.01-.02-.01-.05-.03-.08-.04,0,0-.01,0-.02,0-.02,0-.04-.02-.06-.03-.01,0-.02,0-.03-.01-.02,0-.04-.01-.05-.02-.01,0-.02,0-.03-.01-.03,0-.05-.02-.08-.02-.01,0-.03,0-.04,0-.01,0-.03,0-.04-.01-.02,0-.03,0-.05,0-.01,0-.03,0-.04,0-.04,0-.07-.01-.11-.02,0,0,0,0,0,0-.02,0-.04,0-.06,0,0,0-.02,0-.03,0-.02,0-.04,0-.06,0,0,0-.01,0-.02,0-.05,0-.09,0-.14,0h0c-.71.04-1.46.42-1.89.95-.67.84-.28,1.73.56,2.41.84.67,1.8.87,2.47.03.43-.53.64-1.35.52-2.05h0s-.02-.1-.03-.15ZM.87,16.93s.81-.84,1.76-.53c.39.13.24.51-.18.37-.46-.15-1.17.27-1.34.44-.16.17-.43-.04-.25-.27ZM2.79,18.76c-.36.45-.87.34-1.31-.02-.45-.36-.66-.83-.3-1.28.36-.45,1.15-.69,1.59-.33.45.36.37,1.18.02,1.63Z"/>
      <path class="cls-1" d="M7.84,13.71c-.89.07-1.79-.62-2.47-1.11-.66-.47-1.27-1-1.88-1.53h0l-.46.57,2.52,2.03.59.47h0l.6.49h0l1.33,1.07,1.25-1.55s0,0,0,0c0,0,0,0-.02-.01-.01-.01-.03-.03-.06-.05-.04-.03-.08-.07-.14-.11,0,0-.01,0-.02-.01-.07-.06-.15-.12-.25-.2-.03-.03-.06-.05-.1-.08-.08-.06-.16-.13-.25-.21-.18.14-.4.22-.66.25Z"/>
      <path class="cls-1" d="M4.35,16.08c.56-.27,1.65-1.74,1.81-1.95l-.59-.47-1.19-.96c-.53.77-1.36,2.03-1.89,2.94.53.45,1.22.75,1.86.44ZM3.63,15.49c-.15.14-.46-.03-.35-.26.17-.33.8-1.38,1.01-1.72.2-.31.81.11.64.39-.1.17-1.04,1.33-1.3,1.58Z"/>
      <path class="cls-1" d="M6.15,14.13h0c-.16.2-1.25,1.67-1.81,1.95-.64.31-1.33.01-1.86-.44h0s0,0,0,0c-.02.04-.04.08-.07.11,0,.01-.01.02-.02.03-.01.03-.03.05-.04.08,0,.01-.01.02-.02.04-.01.02-.03.05-.04.07,0,.01-.01.02-.02.03-.02.03-.04.07-.05.1.05,0,.09,0,.14,0,0,0,.01,0,.02,0,.02,0,.04,0,.06,0,0,0,.02,0,.03,0,.02,0,.04,0,.06,0,0,0,0,0,0,0,.04,0,.08,0,.11.02.01,0,.03,0,.04,0,.02,0,.03,0,.05,0,.01,0,.03,0,.04.01.01,0,.03,0,.04,0,.03,0,.05.01.08.02.01,0,.02,0,.03.01.02,0,.04.01.05.02.01,0,.02,0,.03.01.02,0,.04.02.06.03,0,0,.01,0,.02,0,.03.01.05.03.08.04,0,0,.01,0,.02.01.02.01.04.02.06.04,0,0,.01,0,.02.01.02.02.05.03.07.05.03.03.07.06.1.09,0,0,.02.02.02.02.03.03.06.06.08.09,0,0,0,0,0,0,.03.03.05.07.08.11,0,0,0,.02.01.02.02.04.04.07.06.11,0,0,0,0,0,0,.02.04.04.08.06.13,0,0,0,.01,0,.02.02.04.03.09.05.13,0,0,0,0,0,0,.02.05.03.09.04.14,0,0,0,0,0,0,.01.05.02.1.03.15h0c.76-.65,2.11-2.02,2.86-2.83h0l-.6-.49Z"/>
      <path class="cls-1" d="M2.77,17.14c-.45-.36-1.24-.11-1.59.33-.36.45-.15.92.3,1.28.45.36.96.46,1.31.02.36-.45.43-1.27-.02-1.63Z"/>
      <path class="cls-1" d="M4.3,13.52c-.21.33-.84,1.39-1.01,1.72-.11.22.2.4.35.26.27-.25,1.2-1.41,1.3-1.58.16-.28-.44-.7-.64-.39Z"/>
      <path class="cls-1" d="M2.46,16.77c.42.14.57-.24.18-.37-.95-.31-1.76.53-1.76.53-.18.24.09.44.25.27.16-.17.88-.59,1.34-.44Z"/>
    </g>
  </g>
</svg>