<svg width="22" height="13" viewBox="0 0 22 13" fill="none" xmlns="http://www.w3.org/2000/svg">
<path d="M10.2 1.57996C10.2 1.02996 10.65 0.579956 11.2 0.579956C11.75 0.579956 12.2 1.02996 12.2 1.57996C12.2 2.12996 11.75 2.57996 11.2 2.57996C10.65 2.57996 10.2 2.12996 10.2 1.57996ZM6.44998 7.45996C6.71998 7.45996 6.98998 7.43997 7.28998 7.37997C8.47998 7.15997 9.39998 6.42998 10.04 5.19998C10.48 4.35998 10.68 3.46998 10.77 2.88998C10.91 2.93998 11.05 2.95996 11.21 2.95996C11.37 2.95996 11.51 2.92998 11.65 2.88998C11.74 3.45998 11.94 4.34998 12.38 5.19998C13.02 6.42998 13.94 7.15997 15.13 7.37997C15.42 7.42997 15.7 7.45996 15.97 7.45996C17.88 7.45996 19.05 6.17998 19.58 5.41998C19.76 5.55998 19.97 5.65998 20.2 5.69998C19.59 7.36998 18.2 10.41 17.91 11.03C17.9 11.03 17.89 11.03 17.88 11.03C17.78 11.03 17.63 11.03 17.45 11.03C17.08 11.03 16.54 11.03 15.9 11.03C14.62 11.03 12.92 11.03 11.21 11.03C8.29996 11.03 5.38995 11.03 4.60995 11.03H4.52997C4.24997 10.41 2.85997 7.35998 2.23997 5.69998C2.46997 5.65998 2.67997 5.55998 2.85997 5.41998C3.38997 6.17998 4.54997 7.45996 6.46997 7.45996H6.44998ZM0.969971 4.33997C0.969971 3.78997 1.41997 3.33997 1.96997 3.33997C2.51997 3.33997 2.96997 3.78997 2.96997 4.33997C2.96997 4.88997 2.51997 5.33997 1.96997 5.33997C1.41997 5.33997 0.969971 4.88997 0.969971 4.33997ZM17.83 12.78C17.83 12.9 17.73 13 17.61 13H4.78998C4.66998 13 4.56998 12.9 4.56998 12.78V11.41C4.56998 11.41 4.56996 11.41 4.57996 11.41H17.82V12.78H17.83ZM20.43 5.33997C19.88 5.33997 19.43 4.88997 19.43 4.33997C19.43 3.78997 19.88 3.33997 20.43 3.33997C20.98 3.33997 21.43 3.78997 21.43 4.33997C21.43 4.88997 20.98 5.33997 20.43 5.33997Z" fill="#1C1A1B"/>
</svg>
